<svg id="faq-header" xmlns="http://www.w3.org/2000/svg" xmlns:xlink="http://www.w3.org/1999/xlink" width="1366" height="387" viewBox="0 0 1366 387">
  <defs>
    <clipPath id="clip-path">
      <rect id="Mask" width="1366" height="387" fill="#d8d8d8"/>
    </clipPath>
    <clipPath id="clip-path-2">
      <rect id="Mask-2" data-name="Mask" width="1366" height="768" fill="#b576a9"/>
    </clipPath>
    <clipPath id="clip-path-3">
      <path id="Mask-3" data-name="Mask" d="M1523.268,481.66c0,36.27-26.45,77.663-82.126,70.6-12.217,35.5-83.36,110.773-197.745,87.861s-125-128.377-276.16-128.377S802.9,803.7,496.37,640.116,184.94,867.457,0,801.968C0,660.44,0,265.314,0,0H469.088c0,215.981,238.025,393.739,399.251,310.985s283.037-28.994,349.039,61.091,169.829,112.642,223.764,87.7S1520.589,470.572,1523.268,481.66Z" transform="translate(0 0)" fill="#b577a9"/>
    </clipPath>
  </defs>
  <rect id="Mask-4" data-name="Mask" width="1366" height="384" fill="#d8d8d8"/>
  <g id="faq-header-2" data-name="faq-header" clip-path="url(#clip-path)">
    <g id="ilustrasi-depresi-2" transform="translate(0 -164)">
      <path id="Mask-5" data-name="Mask" d="M0,0H1366V768H0Z" fill="#bc87b2"/>
      <g id="ilustrasi-depresi-2-2" data-name="ilustrasi-depresi-2" clip-path="url(#clip-path-2)">
        <g id="Group_2" data-name="Group 2" transform="translate(350.375 420.424)">
          <path id="Mask-6" data-name="Mask" d="M466.138,186.244H0V107.063H9.159v-7.87H43.745V25.405L62.095,12.592H80.6v-6.5h9.418V0h73.146V50.612h21.178V86.983h46.188V99.193l32.783,14.628v28.562h22.749V73.292H318.6V61.951H370.25l11.884,19.612v60.819h26.34V113.82h9.247v-6.757h-9.247v-7.87H509.883V25.405l18.349-12.813h18.509v-6.5h9.418V0h73.146V50.612h21.178V86.983h46.188V99.193l32.783,14.628v28.562H752.2V73.292h32.537V61.951h51.647l11.885,19.612v60.819h26.339V113.82h9.248v-6.757h-9.248v-7.87h140.861v87.052Z" transform="translate(0 161.441)" fill="#515e99"/>
          <path id="Mask_Copy" data-name="Mask Copy" d="M466.138,309.608H0V177.979H9.159V164.9H43.745V42.233l18.349-21.3H80.6V10.125h9.418V0h73.146V84.137h21.178V144.6h46.188v20.3l32.783,24.316v47.48h22.749V121.838H318.6V102.985H370.25l11.884,32.6V236.692h26.34v-47.48h9.247V177.979h-9.247V164.9H509.883V42.233l18.349-21.3h18.509V10.125h9.418V0h73.146V84.137h21.178V144.6h46.188v20.3l32.783,24.316v47.48H752.2V121.838h32.537V102.985h51.647l11.885,32.6V236.692h26.339v-47.48h9.248V177.979h-9.248V164.9h140.861V309.608Z" transform="translate(137.063)" fill="#515e99" opacity="0.5"/>
        </g>
        <g id="Group" transform="matrix(0.995, -0.105, 0.105, 0.995, -74.246, 35.523)">
          <path id="Path_118_Copy" data-name="Path 118 Copy" d="M1530.182,77.257s41.442,106.466-64.841,204.544-146.464,174.415-285.3,116.657S901.818,309.934,808.69,425.885,649.231,748.693,359.053,651.424c-19.44-14-359.053,0-359.053,0S0,484.036,0,343.447C107.1,217.862,435.928,161.387,444.043,130.732,468.3,39.109,604.317,63.674,663,44.477,763.2,11.7,856.308-39.4,1037.786,50.316S1530.182,77.257,1530.182,77.257Z" transform="translate(0.154 405.152)" fill="#b577a9"/>
          <g id="Path_123" data-name="Path 123" transform="translate(6.989 0.006)">
            <path id="Mask-7" data-name="Mask" d="M1523.268,481.66c0,36.27-26.45,77.663-82.126,70.6-12.217,35.5-83.36,110.773-197.745,87.861s-125-128.377-276.16-128.377S802.9,803.7,496.37,640.116,184.94,867.457,0,801.968C0,660.44,0,265.314,0,0H469.088c0,215.981,238.025,393.739,399.251,310.985s283.037-28.994,349.039,61.091,169.829,112.642,223.764,87.7S1520.589,470.572,1523.268,481.66Z" transform="translate(0 0)" fill="#b577a9"/>
          </g>
        </g>
        <path id="Path_119" data-name="Path 119" d="M0,0S454.48,31.5,552.607,270.367,750.258,540.51,840.962,540.51V0Z" transform="matrix(-0.951, 0.309, -0.309, -0.951, 843.578, 547.436)" fill="#bc87b2" opacity="0.86"/>
      </g>
    </g>
  </g>
</svg>
