<svg xmlns="http://www.w3.org/2000/svg" width="24" height="24" viewBox="0 0 24 24">
    <defs>
        <style>
            .cls-1{fill:#fff;opacity:0}
        </style>
    </defs>
    <g id="Group_11019" data-name="Group 11019" transform="translate(10513 6079)">
        <path id="Rectangle_45" d="M0 0h24v24H0z" class="cls-1" data-name="Rectangle 45" transform="translate(-10513 -6079)"/>
        <g id="surface1" transform="translate(-10517.137 -6085.418)">
            <path id="Path_10942" d="M5.352 10.418a1.2 1.2 0 1 0 0 2.4h21.569a1.2 1.2 0 1 0 0-2.4zm0 7.19a1.2 1.2 0 1 0 0 2.4h21.569a1.2 1.2 0 1 0 0-2.4zm0 7.19a1.2 1.2 0 1 0 0 2.4h21.569a1.2 1.2 0 1 0 0-2.4z" data-name="Path 10942"/>
        </g>
    </g>
</svg>
