<svg id="color_palette" data-name="color palette" xmlns="http://www.w3.org/2000/svg" viewBox="0 0 279.51 154.65"><title>logooo</title><path d="M2456.28,463v2.37a11.65,11.65,0,0,1-2.23,6.19l-6.9,9.84-18.59,26.63-27.47,39.2a13.08,13.08,0,0,1-9.15,5.59,12.61,12.61,0,0,1-8.43-1.28,12.38,12.38,0,0,1-6.67-10.75V464.73a12.59,12.59,0,0,1,2.07-7.43,12.4,12.4,0,0,1,11.07-5.53,12.64,12.64,0,0,1,11.77,9.84,14.05,14.05,0,0,1,.29,2.87v37.2a0.69,0.69,0,0,0,.48-0.47l10.68-15.2c6.73-9.61,13.45-19.25,20.22-28.88a12.21,12.21,0,0,1,11.88-5.34,12.39,12.39,0,0,1,10.93,10.46c0,0.25,0,.54.06,0.8h0Z" transform="translate(-2176.77 -399.87)" fill="#0dc9de"/><path d="M2315.1,476.88V540.5a13.16,13.16,0,0,1-1.42,6.47,12.8,12.8,0,0,1-23.35-1.57,13.21,13.21,0,0,1-.76-4.14V412.76a12.46,12.46,0,0,1,4-9.39,12,12,0,0,1,10.26-3.37,12.45,12.45,0,0,1,10.55,8.27,11.12,11.12,0,0,1,.74,4v64.6h0Z" transform="translate(-2176.77 -399.87)" fill="#0dc9de"/><path d="M2332.84,502.79V464a13,13,0,0,1,8.21-12.16,12,12,0,0,1,12.57,2.08,12.79,12.79,0,0,1,4.55,7.89,11.07,11.07,0,0,1,.21,2.08v77.94a12.13,12.13,0,0,1-6.15,10.71,12.49,12.49,0,0,1-11.52,1,12.8,12.8,0,0,1-7.5-8.93,13.25,13.25,0,0,1-.35-3.1q0-19.41,0-38.72h0Z" transform="translate(-2176.77 -399.87)" fill="#0dc9de"/><path d="M2332.85,419.65a12.61,12.61,0,0,1,3.7-9,12.77,12.77,0,1,1-.06,18,12.61,12.61,0,0,1-3.64-9.07h0Z" transform="translate(-2176.77 -399.87)" fill="#0dc9de"/><path d="M2176.78,502.89V464a12.3,12.3,0,0,1,7.44-11.81,12,12,0,0,1,13.1,1.54,0.9,0.9,0,0,0,1,.15,39.77,39.77,0,0,1,10.09-2.37,56.23,56.23,0,0,1,6.37-.4,13,13,0,0,1,2.38,25.77,14.7,14.7,0,0,1-2.53.19,22.89,22.89,0,0,0-7,1,9.13,9.13,0,0,0-3.41,1.87,5.47,5.47,0,0,0-1.85,4.17v57.45a12.8,12.8,0,0,1-25.45,2.08,13.36,13.36,0,0,1-.16-2.08q0-19.33,0-38.64h0Z" transform="translate(-2176.77 -399.87)" fill="#0dc9de"/><path d="M2271.12,502.37V540.8a12.94,12.94,0,0,1-9.08,12.43,12.55,12.55,0,0,1-10.51-1.39,12.82,12.82,0,0,1-5.79-9,13.73,13.73,0,0,1-.16-2.07V464.12a13.13,13.13,0,0,1,8.9-12.62,12.82,12.82,0,0,1,11.47,2.07,13.13,13.13,0,0,1,5.17,10.56q0,19.07,0,38.26h0Z" transform="translate(-2176.77 -399.87)" fill="#0dc9de"/><path d="M2258.32,407a12.77,12.77,0,1,1,0,25.54,12.77,12.77,0,1,1,0-25.54h0Z" transform="translate(-2176.77 -399.87)" fill="#0dc9de"/></svg>