<svg width="88" height="96" viewBox="0 0 88 96" fill="none" xmlns="http://www.w3.org/2000/svg">
<path opacity="0.15" d="M44 88C68.3005 88 88 68.3005 88 44C88 19.6995 68.3005 0 44 0C19.6995 0 0 19.6995 0 44C0 68.3005 19.6995 88 44 88Z" fill="white"/>
<g filter="url(#filter0_d)">
<path d="M44 72C59.464 72 72 59.464 72 44C72 28.536 59.464 16 44 16C28.536 16 16 28.536 16 44C16 59.464 28.536 72 44 72Z" fill="white"/>
</g>
<path d="M48.5 35C45.605 35 44 37.09 44 37.09C44 37.09 42.395 35 39.5 35C36.462 35 34 37.462 34 40.5C34 45.185 41.256 50.959 43.406 52.567C43.76 52.832 44.239 52.832 44.593 52.567C46.744 50.959 54 45.185 54 40.5C54 37.462 51.538 35 48.5 35Z" fill="url(#paint0_linear)"/>
<defs>
<filter id="filter0_d" x="0" y="8" width="88" height="88" filterUnits="userSpaceOnUse" color-interpolation-filters="sRGB">
<feFlood flood-opacity="0" result="BackgroundImageFix"/>
<feColorMatrix in="SourceAlpha" type="matrix" values="0 0 0 0 0 0 0 0 0 0 0 0 0 0 0 0 0 0 127 0"/>
<feOffset dy="8"/>
<feGaussianBlur stdDeviation="8"/>
<feColorMatrix type="matrix" values="0 0 0 0 0 0 0 0 0 0 0 0 0 0 0 0 0 0 0.08 0"/>
<feBlend mode="normal" in2="BackgroundImageFix" result="effect1_dropShadow"/>
<feBlend mode="normal" in="SourceGraphic" in2="effect1_dropShadow" result="shape"/>
</filter>
<linearGradient id="paint0_linear" x1="54" y1="43.8829" x2="34" y2="43.8829" gradientUnits="userSpaceOnUse">
<stop stop-color="#F47C49"/>
<stop offset="1" stop-color="#F5A623"/>
</linearGradient>
</defs>
</svg>
